<svg width="515" height="549" viewBox="0 0 515 549" fill="none" xmlns="http://www.w3.org/2000/svg">
<ellipse cx="264.5" cy="421" rx="250.5" ry="128" fill="#411919"/>
<ellipse cx="264.5" cy="378" rx="216.5" ry="124" fill="#7B3232"/>
<g filter="url(#filter0_d_2_32)">
<path d="M498 233.5C498 362.458 393.458 467 264.5 467C135.542 467 31 362.458 31 233.5C31 104.542 135.542 0 264.5 0C393.458 0 498 104.542 498 233.5Z" fill="#341135"/>
</g>
<path d="M498 246.5C498 375.458 393.458 480 264.5 480C135.542 480 31 375.458 31 246.5C31 117.542 135.542 13 264.5 13C393.458 13 498 117.542 498 246.5Z" fill="url(#paint0_radial_2_32)"/>
<defs>
<filter id="filter0_d_2_32" x="0" y="0" width="501" height="502" filterUnits="userSpaceOnUse" color-interpolation-filters="sRGB">
<feFlood flood-opacity="0" result="BackgroundImageFix"/>
<feColorMatrix in="SourceAlpha" type="matrix" values="0 0 0 0 0 0 0 0 0 0 0 0 0 0 0 0 0 0 127 0" result="hardAlpha"/>
<feOffset dx="-14" dy="18"/>
<feGaussianBlur stdDeviation="8.5"/>
<feComposite in2="hardAlpha" operator="out"/>
<feColorMatrix type="matrix" values="0 0 0 0 0 0 0 0 0 0 0 0 0 0 0 0 0 0 0.25 0"/>
<feBlend mode="normal" in2="BackgroundImageFix" result="effect1_dropShadow_2_32"/>
<feBlend mode="normal" in="SourceGraphic" in2="effect1_dropShadow_2_32" result="shape"/>
</filter>
<radialGradient id="paint0_radial_2_32" cx="0" cy="0" r="1" gradientUnits="userSpaceOnUse" gradientTransform="translate(264.5 246.5) rotate(90) scale(233.5)">
<stop stop-color="#4E235E"/>
<stop offset="0.0001" stop-color="#50265F" stop-opacity="0.5625"/>
<stop offset="1" stop-color="#C064E0" stop-opacity="0"/>
</radialGradient>
</defs>
</svg>
